<?xml version="1.0" encoding="utf-8"?>
<svg xmlns="http://www.w3.org/2000/svg" width="633.8430895483012px" height="633.8430895483012px">
<path fill="none" stroke="red" stroke-width="5" d="M 584.59880 271.82751 Q 542.89809 285.35572 542.89809 316.92154 T 584.59880 362.01558
L 581.47982 377.69574 Q 537.77637 374.23601 525.69665 403.39902 T 546.96634 461.01865
L 538.08424 474.31165 Q 499.03150 454.39068 476.71109 476.71109 T 474.31165 538.08424
L 461.01865 546.96634 Q 432.56204 513.61693 403.39902 525.69665 T 377.69574 581.47982
L 362.01558 584.59880 Q 348.48737 542.89809 316.92154 542.89809 T 271.82751 584.59880
L 256.14735 581.47982 Q 259.60708 537.77637 230.44406 525.69665 T 172.82444 546.96634
L 159.53144 538.08424 Q 179.45240 499.03150 157.13200 476.71109 T 95.75885 474.31165
L 86.87675 461.01865 Q 120.22616 432.56204 108.14644 403.39902 T 52.36327 377.69574
L 49.24429 362.01558 Q 90.94500 348.48737 90.94500 316.92154 T 49.24429 271.82751
L 52.36327 256.14735 Q 96.06672 259.60708 108.14644 230.44406 T 86.87675 172.82444
L 95.75885 159.53144 Q 134.81159 179.45240 157.13200 157.13200 T 159.53144 95.75885
L 172.82444 86.87675 Q 201.28105 120.22616 230.44406 108.14644 T 256.14735 52.36327
L 271.82751 49.24429 Q 285.35572 90.94500 316.92154 90.94500 T 362.01558 49.24429
L 377.69574 52.36327 Q 374.23601 96.06672 403.39902 108.14644 T 461.01865 86.87675
L 474.31165 95.75885 Q 454.39068 134.81159 476.71109 157.13200 T 538.08424 159.53144
L 546.96634 172.82444 Q 513.61693 201.28105 525.69665 230.44406 T 581.47982 256.14735
Z"/>
</svg>